<svg width="32" height="32" viewBox="0 0 32 32" fill="none" xmlns="http://www.w3.org/2000/svg">
<g id="instagram">
<path id="Vector" d="M22.6667 2.66666H9.33335C5.65146 2.66666 2.66669 5.65142 2.66669 9.33332V22.6667C2.66669 26.3486 5.65146 29.3333 9.33335 29.3333H22.6667C26.3486 29.3333 29.3334 26.3486 29.3334 22.6667V9.33332C29.3334 5.65142 26.3486 2.66666 22.6667 2.66666Z" stroke="#1E1E20" stroke-width="1.6" stroke-linecap="round" stroke-linejoin="round"/>
<path id="Vector_2" d="M21.3334 15.16C21.498 16.2697 21.3084 17.403 20.7918 18.3987C20.2751 19.3944 19.4576 20.2019 18.4556 20.7062C17.4536 21.2106 16.318 21.3861 15.2105 21.2079C14.1029 21.0297 13.0798 20.5068 12.2865 19.7136C11.4933 18.9203 10.9704 17.8972 10.7922 16.7896C10.6139 15.6821 10.7895 14.5465 11.2938 13.5445C11.7982 12.5425 12.6057 11.725 13.6014 11.2083C14.5971 10.6917 15.7304 10.5021 16.8401 10.6667C17.972 10.8345 19.0199 11.362 19.829 12.1711C20.6381 12.9802 21.1656 14.0281 21.3334 15.16Z" stroke="#1E1E20" stroke-width="1.6" stroke-linecap="round" stroke-linejoin="round"/>
<path id="Vector_3" d="M23.3334 8.66666H23.3467" stroke="#1E1E20" stroke-width="1.6" stroke-linecap="round" stroke-linejoin="round"/>
</g>
</svg>
