<svg width="90" height="18" viewBox="0 0 90 18" fill="none" xmlns="http://www.w3.org/2000/svg">
<g id="Logo" style="mix-blend-mode:luminosity">
<path d="M0.529419 1.93104H3.0801V15.338H10.15V17.6966H0.529419V1.93104ZM12.6729 1.93104C13.5462 1.93104 14.267 2.6069 14.267 3.47586C14.267 4.35862 13.5462 5.06207 12.6729 5.06207C11.7857 5.06207 11.0787 4.35862 11.0787 3.47586C11.0787 2.6069 11.7857 1.93104 12.6729 1.93104ZM11.4252 6.33103H13.8789V17.6966H11.4252V6.33103ZM15.3206 6.33103H17.7743V7.90344C18.4951 6.70345 19.7427 6.02759 21.3923 6.02759C24.0539 6.02759 25.7174 8.09652 25.7174 11.3793V17.6966H23.2637V11.6C23.2637 9.47587 22.335 8.27584 20.6437 8.27584C18.8001 8.27584 17.7743 9.531 17.7743 11.8069V17.6966H15.3206V6.33103ZM27.0066 1.93104H29.4603V11.9034L34.0348 6.34483H37.1123L32.2327 12.0276L37.1123 17.6966H34.0348L29.4603 12.1517V17.6966H27.0066V1.93104ZM38.0688 3.43448H40.5641V6.33103H43.4752V8.35858H40.5641V14.2069C40.5641 14.9517 41.0215 15.4069 41.7285 15.4069H43.3643V17.6966H41.3958C39.261 17.6966 38.0688 16.4414 38.0688 14.2069V3.43448ZM47.01 6.33103V7.73796C47.62 6.66207 48.6319 6.02759 49.8796 6.02759C50.2539 6.02759 50.4618 6.04138 50.7391 6.13793V8.41379C50.5727 8.37242 50.3232 8.33105 49.8242 8.33105C48.022 8.33105 47.0239 9.83451 47.0239 12.4414V17.6966H44.5703V6.33103H47.01ZM56.4642 6.02759C59.1674 6.02759 62.0924 7.65514 62.0924 12.2758V12.6069H53.3036C53.4977 14.6345 54.676 15.7517 56.6444 15.7517C58.0584 15.7517 59.2644 14.9931 59.5278 13.931H62.023C61.7735 16.2069 59.403 18 56.6444 18C53.1095 18 50.8915 15.7104 50.8915 12C50.8915 8.71722 53.0402 6.02759 56.4642 6.02759ZM59.4862 10.5793C59.1397 9.17244 58.0306 8.28968 56.4781 8.28968C54.9809 8.28968 53.9274 9.19997 53.5115 10.5793H59.4862ZM68.7602 6.02759C71.4633 6.02759 74.3883 7.65514 74.3883 12.2758V12.6069H65.5996C65.7936 14.6345 66.9719 15.7517 68.9404 15.7517C70.3544 15.7517 71.5604 14.9931 71.8237 13.931H74.319C74.0695 16.2069 71.699 18 68.9404 18C65.4054 18 63.1875 15.7104 63.1875 12C63.1875 8.71722 65.3223 6.02759 68.7602 6.02759ZM71.7683 10.5793C71.4217 9.17244 70.3128 8.28968 68.7463 8.28968C67.2491 8.28968 66.1956 9.19997 65.7797 10.5793H71.7683ZM79.3785 5.9862L76.2595 3.03448L77.9786 1.28276L80.9456 4.31724V0H83.5238V4.31724L86.49 1.28276L88.2091 3.03448L85.0901 5.9862H89.4706V8.42756H85.0621L88.1955 11.4621L86.4764 13.1724L82.2207 8.91038L77.965 13.1724L76.2459 11.4621L79.3785 8.42756H74.9705V5.9862H79.3785ZM80.9592 11.9172H83.5374V17.7103H80.9592V11.9172Z" fill="#1E1E20"/>
</g>
</svg>
