<svg width="32" height="32" viewBox="0 0 32 32" fill="none" xmlns="http://www.w3.org/2000/svg">
<g id="music">
<path id="Vector" d="M12.0001 24V6.66667L28.0001 4V21.3333" stroke="#1E1E20" stroke-width="1.6" stroke-linecap="round" stroke-linejoin="round"/>
<path id="Vector_2" d="M8.00006 28C10.2092 28 12.0001 26.2091 12.0001 24C12.0001 21.7909 10.2092 20 8.00006 20C5.79092 20 4.00006 21.7909 4.00006 24C4.00006 26.2091 5.79092 28 8.00006 28Z" stroke="#1E1E20" stroke-width="1.6" stroke-linecap="round" stroke-linejoin="round"/>
<path id="Vector_3" d="M24.0001 25.3333C26.2092 25.3333 28.0001 23.5425 28.0001 21.3333C28.0001 19.1242 26.2092 17.3333 24.0001 17.3333C21.7909 17.3333 20.0001 19.1242 20.0001 21.3333C20.0001 23.5425 21.7909 25.3333 24.0001 25.3333Z" stroke="#1E1E20" stroke-width="1.6" stroke-linecap="round" stroke-linejoin="round"/>
</g>
</svg>
