<svg width="24" height="28" viewBox="0 0 24 28" fill="none" xmlns="http://www.w3.org/2000/svg">
<g id="Logo / Twitch / ON">
<path d="M18.8572 5.67346H16.898V11.551H18.8572V5.67346Z" fill="#1E1E20"/>
<path d="M11.5102 5.67346H13.4694V11.551H11.5102V5.67346Z" fill="#1E1E20"/>
<path fill-rule="evenodd" clip-rule="evenodd" d="M5.14289 0.285706L0.244934 5.18366V22.8163H6.12248V27.7143L11.0204 22.8163H14.9388L23.7551 14V0.285706H5.14289ZM21.7959 13.0204L17.8776 16.9388H13.9592L10.5306 20.3673V16.9388H6.12248V2.24489H21.7959V13.0204Z" fill="#1E1E20"/>
<path fill-rule="evenodd" clip-rule="evenodd" d="M17.8776 16.9388L21.7959 13.0204V2.24489H6.12248V16.9388H10.5306V20.3673L13.9592 16.9388H17.8776ZM18.8572 5.67346H16.898V11.551H18.8572V5.67346ZM11.5102 5.67346H13.4694V11.551H11.5102V5.67346Z" fill="white"/>
</g>
</svg>
