<svg width="16" height="17" viewBox="0 0 16 17" fill="none" xmlns="http://www.w3.org/2000/svg">
<g id="Badge / User / Normal vision / ON">
<path fill-rule="evenodd" clip-rule="evenodd" d="M5.34778 2.09697C5.85112 1.14739 6.84948 0.5 8 0.5C9.15052 0.5 10.1489 1.14739 10.6522 2.09697C11.6796 1.78143 12.8433 2.0296 13.6569 2.84315C14.4704 3.65669 14.7186 4.82041 14.403 5.84778C15.3526 6.35112 16 7.34948 16 8.5C16 9.65052 15.3526 10.6489 14.403 11.1522C14.7186 12.1796 14.4704 13.3433 13.6569 14.1569C12.8433 14.9704 11.6796 15.2186 10.6522 14.903C10.1489 15.8526 9.15052 16.5 8 16.5C6.84947 16.5 5.85112 15.8526 5.34778 14.903C4.32041 15.2186 3.15669 14.9704 2.34314 14.1569C1.52961 13.3433 1.28144 12.1796 1.59698 11.1522C0.647392 10.6489 0 9.65052 0 8.5C0 7.34948 0.647391 6.35112 1.59697 5.84778C1.28143 4.82041 1.5296 3.65669 2.34314 2.84314C3.15669 2.0296 4.32041 1.78143 5.34778 2.09697ZM11.81 6.49246C11.8686 6.55104 11.8686 6.64602 11.81 6.70459L7.07236 11.4422C7.01378 11.5008 6.91881 11.5008 6.86023 11.4422L4.24393 8.82591C4.18536 8.76734 4.18536 8.67236 4.24393 8.61378L5.09246 7.76525C5.15104 7.70668 5.24602 7.70668 5.30459 7.76525L6.86023 9.32089C6.91881 9.37947 7.01378 9.37947 7.07236 9.32089L10.7493 5.64393C10.8079 5.58536 10.9029 5.58536 10.9614 5.64393L11.81 6.49246Z" fill="#1DA1F2"/>
<path d="M11.81 6.70459C11.8686 6.64602 11.8686 6.55104 11.81 6.49246L10.9614 5.64393C10.9029 5.58536 10.8079 5.58536 10.7493 5.64393L7.07236 9.32089C7.01378 9.37947 6.91881 9.37947 6.86023 9.32089L5.30459 7.76525C5.24602 7.70668 5.15104 7.70668 5.09246 7.76525L4.24393 8.61378C4.18536 8.67236 4.18536 8.76734 4.24393 8.82591L6.86023 11.4422C6.91881 11.5008 7.01378 11.5008 7.07236 11.4422L11.81 6.70459Z" fill="white"/>
</g>
</svg>
